<?xml version="1.0" standalone="no"?>
<!DOCTYPE svg PUBLIC "-//W3C//DTD SVG 1.1//EN" "http://www.w3.org/Graphics/SVG/1.1/DTD/svg11.dtd" >
<!--
2013-9-30: Created.
-->
<svg>
<metadata>
Created by iconfont
</metadata>
<defs>

<font id="myicon" horiz-adv-x="1024" >
  <font-face
    font-family="myicon"
    font-weight="500"
    font-stretch="normal"
    units-per-em="1024"
    ascent="896"
    descent="-128"
  />
    <missing-glyph />
    
    <glyph glyph-name="74wodedingdan" unicode="&#58958;" d="M334.378092 637.451456c0-18.650779-15.096836-33.771151-33.751708-33.771151-18.629289 0-33.750685 15.120372-33.750685 33.771151 0 18.612916 15.116279 33.734312 33.750685 33.734312C319.277162 671.193954 334.378092 656.064372 334.378092 637.451456L334.378092 637.451456zM334.378092 637.451456M334.378092 513.675408c0-18.664082-15.096836-33.730219-33.751708-33.730219-18.629289 0-33.750685 15.077394-33.750685 33.730219 0 18.634406 15.116279 33.730219 33.750685 33.730219C319.277162 547.404604 334.378092 532.296511 334.378092 513.675408L334.378092 513.675408zM334.378092 513.675408M266.874675 389.885034c0-8.837272 3.63683-17.618263 9.887184-23.863501 6.246261-6.249331 15.027252-9.887184 23.863501-9.887184s17.619286 3.637854 23.868617 9.887184c6.246261 6.246261 9.883091 15.027252 9.883091 23.863501s-3.637854 17.619286-9.883091 23.868617c-6.249331 6.245238-15.031345 9.882068-23.868617 9.882068s-17.618263-3.637854-23.863501-9.882068C270.511505 407.50432 266.874675 398.722306 266.874675 389.885034L266.874675 389.885034zM266.874675 389.885034M639.596562 606.957955 413.136853 606.957955c-16.807804 0-30.463826 13.639648-30.463826 30.493501 0 16.817014 13.656021 30.455639 30.463826 30.455639L639.600655 667.907095c16.833387 0 30.464849-13.638625 30.464849-30.455639C670.07369 620.597603 656.447345 606.957955 639.596562 606.957955L639.596562 606.957955zM639.596562 606.957955M639.596562 483.16758 413.136853 483.16758c-16.807804 0-30.463826 13.661138-30.463826 30.494525 0 16.83748 13.656021 30.498618 30.463826 30.498618L639.600655 544.160723c16.833387 0 30.464849-13.661138 30.464849-30.498618C670.065504 496.828718 656.447345 483.16758 639.596562 483.16758L639.596562 483.16758zM639.596562 483.16758M639.596562 359.399719 413.136853 359.399719c-16.807804 0-30.463826 13.662161-30.463826 30.476105 0 16.867156 13.656021 30.494525 30.463826 30.494525L639.600655 420.370349c16.833387 0 30.464849-13.626345 30.464849-30.494525C670.07369 373.060857 656.447345 359.399719 639.596562 359.399719L639.596562 359.399719zM639.596562 359.399719M266.874675 273.801179c0-8.837272 3.63683-17.619286 9.887184-23.863501 6.246261-6.250354 15.027252-9.887184 23.863501-9.887184s17.619286 3.63683 23.868617 9.887184c6.246261 6.245238 9.883091 15.027252 9.883091 23.863501s-3.637854 17.618263-9.883091 23.867594c-6.249331 6.246261-15.031345 9.883091-23.868617 9.883091s-17.618263-3.637854-23.863501-9.883091C270.511505 291.419442 266.874675 282.638451 266.874675 273.801179L266.874675 273.801179zM266.874675 273.801179M639.596562 243.307677 413.136853 243.307677c-16.807804 0-30.463826 13.648858-30.463826 30.494525 0 16.836457 13.656021 30.467919 30.463826 30.467919L639.600655 304.270121c16.833387 0 30.464849-13.631462 30.464849-30.467919C670.07369 256.956535 656.447345 243.307677 639.596562 243.307677L639.596562 243.307677zM639.596562 243.307677M958.70846 653.503037c0 110.11184-40.662095 150.770865-90.849124 150.770865L249.948167 804.273902c-51.609425 0-93.628424-41.98216-93.628424-93.64275l0-588.641541-0.180102 0L65.290517 121.989611c0-137.476071 50.737568-158.26249 113.38642-158.26249l71.27123 0 398.314775 0 72.437799 0c51.65138 0 93.649913 41.98216 93.649913 93.637634L814.350654 653.503037 958.70846 653.503037 958.70846 653.503037zM776.877181 57.377034c0-30.972409-25.191752-56.175417-56.175417-56.175417-50.149167 0-75.818803 10.701736-75.818803 120.809483l-130.829697 0L193.793216 122.0111 193.793216 710.644455c0 30.972409 25.157983 56.175417 56.145741 56.175417l551.656185 0c-14.852266-23.539112-24.103978-59.163471-24.508183-110.008486-0.119727-1.144056-0.217964-2.284019-0.217964-3.308349L776.868995 57.377034 776.877181 57.377034 776.877181 57.377034zM776.877181 57.377034"  horiz-adv-x="1024" />

    
    <glyph glyph-name="tuichu" unicode="&#59006;" d="M503.4496 691.2a25.6 25.6 0 0 0 4.608-50.7904L503.4496 640H273.408c-9.9328 0-15.7696-4.5056-17.1008-12.8L256 623.5136v-592.128h247.4496a25.6 25.6 0 0 0 25.1904-21.0432l0.4096-4.608a25.6 25.6 0 0 0-20.992-25.1904l-4.608-0.4096H204.8V623.4624c0 36.9664 25.9072 64.3584 61.696 67.4304L273.408 691.2h230.0928z m172.544-115.8144l3.328-3.1744 197.12-221.7984-197.12-221.7984a25.6 25.6 0 0 0-41.0112 30.2592l2.7136 3.7376 141.1584 158.8224h-415.232v51.2h421.2224L641.024 538.2144a25.6 25.6 0 0 0-1.024 32.768l3.1744 3.328a25.6 25.6 0 0 0 32.768 1.024z"  horiz-adv-x="1024" />

    
    <glyph glyph-name="piaozhong" unicode="&#58949;" d="M313.872511 657.964017 313.872511 657.964017 267.55197 699.671219 309.259172 745.991759C373.064586 688.541106 381.123324 591.263135 324.598757 528.486243 268.074189 465.709351 170.48675 463.555626 106.681336 521.006279L148.388537 567.326819 194.709077 525.619617 75.545644 393.275217 70.932306 481.302959 633.396007-25.141632 545.368265-29.754971 664.531698 102.589429 710.852238 60.882228 669.145037 14.561688C605.339621 72.012342 597.280885 169.290311 653.805452 232.067203 710.33002 294.844095 807.917457 296.997822 871.722873 239.547168L830.015671 193.226628 783.695131 234.93383 902.858565 367.27823 907.471903 279.250488 345.008202 785.695079 433.035944 790.308418 313.872511 657.964017ZM267.55197 699.671219 386.715404 832.015619 949.179105 325.571028 830.015671 193.226628 830.015671 193.226628C791.185656 228.189331 733.032066 226.905899 700.125992 190.360002 667.219919 153.814105 672.022222 95.844931 710.852238 60.882228L591.688805-71.462173 29.225104 434.982419 148.388537 567.326819C187.218553 532.364116 245.372143 533.647548 278.278216 570.193445 311.18429 606.739342 306.381986 664.708516 267.55197 699.671219L267.55197 699.671219ZM651.404204 593.688753l33.0861-29.790858-89.372575-99.2583-33.0861 29.790858 89.372575 99.2583ZM532.240771 461.344353l33.0861-29.790858-119.163433-132.3444-33.0861 29.790858 119.163433 132.3444ZM383.286479 295.913852l33.0861-29.790858-89.372575-99.2583-33.0861 29.790858 89.372575 99.2583Z"  horiz-adv-x="1024" />

    
    <glyph glyph-name="mulu" unicode="&#58918;" d="M64.122925 704.243675c0-16.753569 6.897084-33.399691 18.74083-45.245484 11.845793-11.843746 28.490891-18.74083 45.240367-18.74083 16.753569 0 33.399691 6.897084 45.245484 18.74083 11.844769 11.845793 18.736736 28.491914 18.736736 45.245484 0 16.749476-6.891967 33.394574-18.736736 45.240367-11.845793 11.843746-28.491914 18.74083-45.245484 18.74083-16.749476 0-33.394574-6.897084-45.240367-18.74083C71.020008 737.638249 64.122925 720.993151 64.122925 704.243675L64.122925 704.243675zM64.122925 704.243675M64.122925 384.330528c0-16.749476 6.897084-33.400714 18.74083-45.240367 11.845793-11.843746 28.490891-18.74083 45.240367-18.74083 16.753569 0 33.399691 6.897084 45.245484 18.74083 11.844769 11.839653 18.736736 28.491914 18.736736 45.240367 0 16.750499-6.891967 33.400714-18.736736 45.245484-11.845793 11.840676-28.491914 18.736736-45.245484 18.736736-16.749476 0-33.394574-6.89606-45.240367-18.736736C71.020008 417.730219 64.122925 401.080004 64.122925 384.330528L64.122925 384.330528zM64.122925 384.330528M64.122925 64.417381c0-16.748453 6.897084-33.395598 18.74083-45.24139 11.845793-11.843746 28.490891-18.74083 45.240367-18.74083 16.753569 0 33.399691 6.897084 45.245484 18.74083 11.844769 11.845793 18.736736 28.492938 18.736736 45.24139 0 16.752546-6.891967 33.399691-18.736736 45.243437-11.845793 11.845793-28.491914 18.73776-45.245484 18.73776-16.749476 0-33.394574-6.890944-45.240367-18.73776C71.020008 97.817072 64.122925 81.169927 64.122925 64.417381L64.122925 64.417381zM64.122925 64.417381M959.876052 698.294173c0-32.051997-25.985838-58.036811-58.037834-58.036811L379.101689 640.257362c-32.04995 0-58.031695 25.984814-58.031695 58.036811l0 11.899004c0 32.051997 25.981744 58.031695 58.031695 58.031695l522.736529 0c32.057113 0 58.037834-25.979698 58.037834-58.031695L959.876052 698.294173 959.876052 698.294173zM959.876052 698.294173M959.876052 378.381026c0-32.051997-25.985838-58.032718-58.037834-58.032718L378.086569 320.348308c-32.051997 0-58.036811 25.980721-58.036811 58.032718L320.049758 390.279007c0 32.05302 25.985838 58.032718 58.036811 58.032718l523.751648 0c32.051997 0 58.037834-25.980721 58.037834-58.032718L959.876052 378.381026 959.876052 378.381026zM959.876052 378.381026M959.876052 58.471972c0-32.05609-25.985838-58.036811-58.037834-58.036811L378.086569 0.435161c-32.051997 0-58.036811 25.986861-58.036811 58.036811l0 11.893888c0 32.051997 25.985838 58.032718 58.036811 58.032718l523.751648 0c32.057113 0 58.037834-25.980721 58.037834-58.032718L959.876052 58.471972 959.876052 58.471972zM959.876052 58.471972"  horiz-adv-x="1024" />

    
    <glyph glyph-name="yanchu" unicode="&#58990;" d="M611.840985 227.283433 504.240968 285.731451 396.585286 227.283433 419.686169 346.294731 330.065873 429.123922 451.97174 444.264743 504.240968 553.924358 556.454531 444.264743 678.360398 429.123922 588.740102 346.294731 611.840985 227.283433ZM797.650018 383.979786C797.650018 433.410111 829.156284 475.270025 872.9088 490.633503L872.574812 681.174043C872.574812 701.714346 856.098036 718.358115 835.724728 718.358115L172.979867 718.358115C152.606558 718.358115 136.129783 701.714346 136.129783 681.174043L135.6288 490.633503C179.381316 475.270025 210.831917 433.410111 210.831917 383.979786 210.831917 334.605128 179.381316 292.689549 135.6288 277.32607L136.129783 86.395877C136.129783 65.855574 152.606558 49.211806 172.979867 49.211806L835.724728 49.211806C856.098036 49.211806 872.574812 65.855574 872.574812 86.395877L872.9088 277.32607C829.156284 292.689549 797.650018 334.605128 797.650018 383.979786L797.650018 383.979786Z"  horiz-adv-x="1024" />

    
    <glyph glyph-name="changci" unicode="&#58887;" d="M901.973333 488.106667H286.788267l618.257066 209.8176a74.001067 74.001067 0 0 1 49.220267 91.818666l-15.803733 53.3504A74.410667 74.410667 0 0 1 867.601067 896c-7.168 0-14.2336-1.024-21.128534-3.072l-0.512-0.170667L100.352 639.761067a74.069333 74.069333 0 0 1-49.288533-91.818667l15.837866-53.316267c4.369067-14.677333 13.175467-27.306667 24.6784-36.522666a73.4208 73.4208 0 0 1-14.506666-43.963734v-468.1728a74.069333 74.069333 0 0 1 73.966933-74.001066h750.8992a74.103467 74.103467 0 0 1 74.001067 74.001066V414.1056a74.0352 74.0352 0 0 1-73.966934 74.001067z m18.705067-74.001067v-74.308267h-216.814933l75.093333 93.013334h123.016533c10.308267 0 18.705067-8.362667 18.705067-18.705067zM151.074133 432.810667h188.177067L256.682667 350.242133a27.5456 27.5456 0 0 1-6.5536-10.4448h-117.76v74.308267a18.705067 18.705067 0 0 0 18.705066 18.705067z m260.573867-5.802667a28.501333 28.501333 0 0 1 4.437333 5.802667h291.84l-68.539733-84.718934a27.306667 27.306667 0 0 1-4.539733-8.260266H324.437333l87.210667 87.176533zM116.667733 586.888533l0.512 0.2048 745.437867 252.928a18.773333 18.773333 0 0 0 22.8352-12.6976l15.906133-53.316266a18.7392 18.7392 0 0 0-12.5952-23.2448l-0.580266-0.170667-745.3696-252.928a18.8416 18.8416 0 0 0-22.869334 12.6976l-15.872 53.316267a18.670933 18.670933 0 0 0 12.5952 23.210666z m785.3056-659.694933H151.074133a18.773333 18.773333 0 0 0-18.705066 18.7392v338.5344h788.309333v-338.5344a18.773333 18.773333 0 0 0-18.705067-18.7392z"  horiz-adv-x="1024" />

    
    <glyph glyph-name="xiaoshoue" unicode="&#58963;" d="M132.933 301.134c-17.279 0-31.406-14.049-31.406-31.278v-246.947c0-17.23 14.127-31.333 31.406-31.333s31.406 14.103 31.406 31.333V269.855c0 17.23-14.127 31.279-31.406 31.279z m252.818 153.535c-17.279 0-31.406-14.075-31.406-31.303v-400.614c0-17.229 14.127-31.331 31.406-31.331 17.306 0 31.408 14.103 31.408 31.331V423.366c0.001 17.228-14.101 31.303-31.408 31.303z m262.513-153.535c-17.281 0-31.407-14.049-31.407-31.278v-246.947c0-17.23 14.126-31.333 31.407-31.333s31.404 14.103 31.404 31.333V269.855c0 17.23-14.123 31.279-31.404 31.279z m255.047 153.535c-17.279 0-31.404-14.075-31.404-31.303v-400.458c0-17.23 14.125-31.333 31.404-31.333 17.308 0 31.408 14.103 31.408 31.333V423.209c0.178 17.385-14.101 31.46-31.408 31.46z m20.951 291.711l-151.808 32.074c-13.946 3.027-27.739-5.999-30.611-19.92-2.999-13.896 6.049-27.662 19.997-30.509l80.738-17.074-228.567-179.753L422.083 691.36c-11.104 11.385-29.331 12.794-42.022 2.847l-290.92-228.77c-13.636-10.768-15.844-30.533-5.23-43.971 10.796-13.587 30.614-15.792 44.102-5.202l270.766 212.797 189.543-158.265a31.94 31.94 0 0 1 21.713-7.258c9.052-2.232 19.051-0.331 26.821 5.847l242.665 190.827-18.076-85.07c-2.998-13.897 6.027-27.663 19.997-30.509 13.952-3.001 27.74 5.998 30.616 19.92l32.198 151.317c3.001 13.744-6.05 27.512-19.994 30.51z"  horiz-adv-x="1024" />

    
    <glyph glyph-name="yinlehui" unicode="&#58938;" d="M915.937 831.777L337.341 702.258s-43.394-9.814-43.394-43.178v-585.136c-21.696 6.013-46.256 9.497-72.322 9.497-87.892 0-159.116-38.653-159.116-86.341 0-47.696 71.224-86.349 159.116-86.349 87.89 0 159.114 38.653 159.114 86.349V455.826L872.541 562.52v-359.086c-21.696 6.016-46.256 9.499-72.319 9.499-87.89 0-159.116-38.653-159.116-86.349 0-47.689 71.226-86.348 159.116-86.348 87.888 0 159.111 38.66 159.111 86.348V788.572c0 23.86-19.441 43.178-43.396 43.178v0.027z"  horiz-adv-x="1024" />

    
    <glyph glyph-name="tiyu" unicode="&#59114;" d="M196.923 699.077h157.539v-630.154H196.923zM354.462 37.415H196.923c-17.33 0-31.508 14.179-31.508 31.508V699.077c0 17.33 14.179 31.508 31.508 31.508h157.539c17.329 0 31.507-14.179 31.507-31.508v-630.154c0-17.33-14.178-31.508-31.507-31.508zM228.43 100.431h94.523V667.569H228.43v-567.138zM669.538 273.723H354.462c-17.33 0-31.508 14.179-31.508 31.508V462.769c0 17.33 14.178 31.508 31.508 31.508h315.076c17.33 0 31.508-14.179 31.508-31.508v-157.538c0-17.33-14.178-31.508-31.508-31.508zM385.97 336.738h252.062v94.524H385.969v-94.524zM118.154 541.538h78.77v-315.076h-78.77zM196.923 194.954h-78.77c-17.328 0-31.507 14.178-31.507 31.508V541.538c0 17.33 14.179 31.508 31.508 31.508h78.77c17.328 0 31.507-14.178 31.507-31.508v-315.076c0-17.33-14.179-31.508-31.508-31.508z m-47.261 63.015h15.753V510.031h-15.753v-252.062zM827.077 68.923H669.538V699.077h157.539zM827.077 37.415H669.538c-17.329 0-31.507 14.179-31.507 31.508V699.077c0 17.33 14.178 31.508 31.507 31.508h157.539c17.33 0 31.508-14.179 31.508-31.508v-630.154c0-17.33-14.179-31.508-31.508-31.508z m-126.03 63.016h94.522V667.569h-94.523v-567.138zM905.846 226.462h-78.77V541.538h78.77zM905.846 194.954h-78.77c-17.328 0-31.507 14.178-31.507 31.508V541.538c0 17.33 14.179 31.508 31.508 31.508h78.77c17.328 0 31.507-14.178 31.507-31.508v-315.076c0-17.33-14.179-31.508-31.508-31.508z m-47.261 63.015h15.753V510.031h-15.753v-252.062z"  horiz-adv-x="1024" />

    
    <glyph glyph-name="yonghuliebiao" unicode="&#58880;" d="M527.488 332.032c66.176 43.968 110.208 118.912 110.208 204.48 0 134.848-108.288 244.096-242.176 244.096S153.344 671.872 153.344 536.512c0-85.568 43.968-160.512 110.208-204.48-135.36-44.48-231.552-159.488-231.552-314.688 0-16.896 13.504-30.464 30.464-30.464 16.896 0 30.464 13.568 30.464 30.464 0 168.704 135.808 275.072 302.592 275.072s302.592-106.368 302.592-275.072c0-16.896 13.504-30.464 30.464-30.464 16.896 0 30.464 13.568 30.464 30.464-0.512 155.2-96.704 270.208-231.552 314.688z m-131.968 21.248c-100.096 0-181.76 82.688-181.76 183.232s81.664 183.168 181.76 183.168c100.032 0 181.76-82.624 181.76-183.168S495.104 353.28 395.52 353.28z m388.16-24.64c69.568 43.52 116.992 119.872 116.992 208.32 0 134.912-108.288 244.16-242.176 244.16-16.96 0-30.464-13.568-30.464-30.464 0-16.96 13.504-30.464 30.464-30.464 100.032 0 181.696-82.688 181.696-183.232 0-67.648-36.224-126.592-90.88-158.016-53.12-32.896-67.648-79.296 0-104.448 105.408-37.696 181.76-137.28 181.76-257.152 0-16.896 13.568-30.464 30.464-30.464 16.96 0 30.464 13.568 30.464 30.464-0.96 140.672-87.04 261.056-208.32 311.296z"  horiz-adv-x="1024" />

    
    <glyph glyph-name="chengshi" unicode="&#58960;" d="M84.8-41.5h853.1v828c0 6.7-2.6 13-7.4 17.7-4.7 4.7-11.1 7.4-17.7 7.4H511.3c-13.9 0-25.1-11.2-25.1-25.1v-376.4H109.9c-13.9 0-25.1-11.2-25.1-25.1v-426.5z m317.8 535.2V786.4C402.6 846.4 451.3 895.1 511.3 895.1h401.4c60 0 108.7-48.7 108.7-108.7v-836.3c0-41.6-33.7-75.3-75.3-75.3H76.4c-20 0-39.1 7.9-53.2 22-14.1 14.1-22 33.3-22 53.2V385c0 60 48.7 108.7 108.7 108.7h292.7z m0 0M402.6 518.8h83.6v-602.2h-83.6V518.8z m376.3 108.7c23.1 0 41.8-18.7 41.8-41.8 0-23.1-18.7-41.8-41.8-41.8H645.1c-23.1 0-41.8 18.7-41.8 41.8 0 23.1 18.7 41.8 41.8 41.8h133.8z m0-200.7c23.1 0 41.8-18.7 41.8-41.8 0-23.1-18.7-41.8-41.8-41.8H645.1c-23.1 0-41.8 18.7-41.8 41.8 0 23.1 18.7 41.8 41.8 41.8h133.8z m0-200.7c23.1 0 41.8-18.7 41.8-41.8 0-23.1-18.7-41.8-41.8-41.8H645.1c-23.1 0-41.8 18.7-41.8 41.8 0 23.1 18.7 41.8 41.8 41.8h133.8z m0 0"  horiz-adv-x="1024" />

    
    <glyph glyph-name="zhanlanxiuxian28" unicode="&#58914;" d="M875.52 255.30514300000004a36.571429 36.571429 0 1 0 0-73.142857h-147.456l-5.266286 30.354285c-25.124571 144.713143-71.314286 209.883429-134.363428 209.883429-62.72 0-108.251429-65.718857-131.949715-211.931429l-4.973714-30.72h-112.64a36.571429 36.571429 0 0 0 0 73.142858h50.944c31.268571 157.659429 96.182857 242.651429 198.582857 242.651428 102.180571 0 167.862857-84.114286 200.667429-240.237714h86.491428zM164.571429 713.142857v-658.285714h694.857142V713.142857h-694.857142z m0 73.142857h694.857142a73.142857 73.142857 0 0 0 73.142858-73.142857v-658.285714a73.142857 73.142857 0 0 0-73.142858-73.142857h-694.857142a73.142857 73.142857 0 0 0-73.142858 73.142857V713.142857a73.142857 73.142857 0 0 0 73.142858 73.142857zM325.083429 461.824c30.281143 0 54.857143 25.234286 54.857142 56.32 0 31.085714-24.576 56.283429-54.857142 56.283429-30.317714 0-54.857143-25.234286-54.857143-56.32 0-31.085714 24.539429-56.283429 54.857143-56.283429z"  horiz-adv-x="1024" />

    
    <glyph glyph-name="ertongqinzi28" unicode="&#58915;" d="M468.297143 495.908571a36.571429 36.571429 0 0 0 24.246857 69.010286c97.170286-34.157714 202.971429 48.786286 181.613714 117.430857C660.626286 725.76 609.865143 749.714286 512 749.714286 310.016 749.714286 146.285714 585.9839999999999 146.285714 384s163.730286-365.714286 365.714286-365.714286 365.714286 163.730286 365.714286 365.714286a36.571429 36.571429 0 0 0 73.142857 0c0-242.358857-196.498286-438.857143-438.857143-438.857143S73.142857 141.64114300000006 73.142857 384 269.641143 822.857143 512 822.857143c126.244571 0 206.848-38.034286 231.972571-118.747429 40.667429-130.633143-125.586286-260.937143-275.675428-208.201143zM512-54.85714299999995C269.641143-54.85714299999995 73.142857 141.64114300000006 73.142857 384S269.641143 822.857143 512 822.857143s438.857143-196.498286 438.857143-438.857143-196.498286-438.857143-438.857143-438.857143z m0 73.142857c201.984 0 365.714286 163.730286 365.714286 365.714286S713.984 749.714286 512 749.714286 146.285714 585.9839999999999 146.285714 384s163.730286-365.714286 365.714286-365.714286zM347.428571 274.285714a54.857143 54.857143 0 1 1 0 109.714286 54.857143 54.857143 0 0 1 0-109.714286zM676.571429 274.285714a54.857143 54.857143 0 1 1 0 109.714286 54.857143 54.857143 0 0 1 0-109.714286z"  horiz-adv-x="1024" />

    
    <glyph glyph-name="quyuanzatan28" unicode="&#58917;" d="M269.970286 299.081143l242.322285-146.907429 313.051429 182.966857 101.376 59.209143c-9.508571 96.256-83.529143 208.457143-170.715429 270.774857-127.158857 102.838857-341.723429 105.910857-481.792-10.020571-85.577143-70.838857-149.76-166.217143-157.769142-261.266286l153.526857-94.756571z m-38.034286-62.464l-0.256 0.146286-171.885714 106.057142a36.571429 36.571429 0 0 0-17.334857 31.122286c0 127.707429 78.445714 249.197714 185.124571 337.481143 167.350857 138.532571 420.644571 134.948571 572.708571 11.922286 109.348571-78.08 200.594286-222.683429 200.594286-349.403429a36.571429 36.571429 0 0 0-18.139428-31.597714l-120.539429-70.363429-331.812571-193.938285a36.571429 36.571429 0 0 0-37.412572 0.292571L231.936 236.61714300000006zM786.432 309.39428599999997a36.571429 36.571429 0 1 0-64.219429-35.035429c-42.130286 77.348571-132.608 136.96-213.467428 136.96-78.262857 0-147.273143-51.638857-191.524572-136.411428a36.571429 36.571429 0 1 0-64.841142 33.901714c55.881143 106.898286 147.748571 175.652571 256.365714 175.652571 109.056 0 223.305143-75.300571 277.686857-175.104zM471.222857 125.11085700000001a36.571429 36.571429 0 0 0 14.262857 2.889143h62.902857a36.571429 36.571429 0 0 0 14.372572-2.925714c120.173714-51.492571 140.434286-62.025143 140.434286-95.232 0-62.902857-91.136-119.076571-187.501715-119.076572C422.948571-89.234286 329.142857-27.501713999999993 329.142857 29.842285999999945c0 33.353143 20.150857 43.702857 142.08 95.268571z m-56.173714-105.581714c3.803429-3.291429 8.192-6.582857 13.019428-9.801143a160.658286 160.658286 0 0 1 87.625143-25.819429c33.792 0 65.316571 8.923429 88.978286 23.515429 6.144 3.766857 11.154286 7.643429 15.104 11.044571A1301.650286 1301.650286 0 0 1 540.854857 54.85714299999995h-47.945143c-34.011429-14.482286-60.050286-26.294857-77.897143-35.328z"  horiz-adv-x="1024" />

    
    <glyph glyph-name="changge" unicode="&#58919;" d="M780.053 79.53c-35.456-9.557-75.114-2.431-104.32 22.038L370.304 357.291a21.27 21.27 0 0 0-5.27 6.549 237.44 237.44 0 0 0-23.7-1.173c-129.6 0-234.667 105.066-234.667 234.666S211.733 832 341.333 832 576 726.933 576 597.333c0-8-0.405-15.914-1.173-23.701 2.432-1.28 4.693-3.03 6.549-5.27l255.723-305.429c34.858-41.621 34.517-104.405 0.917-146.005-0.384-0.47-2.39-9.323-3.243-12.416-22.805-81.301-74.282-127.317-150.613-142.997-58.475-12.011-125.61-6.827-224.47 12.074-14.933 2.859-29.44 5.782-51.626 10.347-172.736 35.541-230.827 38.827-264.725 3.755a21.333 21.333 0 1 0-30.678 29.653c28.672 29.653 72.171 39.893 132.267 36.48 42.41-2.41 73.984-7.979 171.733-28.096 22.016-4.523 36.352-7.403 51.051-10.24 176.17-33.707 270.08-22.293 312.32 64.043z m-364.16 295.233l287.254-240.491c27.605-23.125 71.53-21.205 97.002 4.267 25.472 25.472 27.414 69.354 4.267 97.002L563.904 522.773a235.285 235.285 0 0 0-148.01-148.01z m-74.56 30.57a192 192 0 1 1 0 384 192 192 0 0 1 0-384z m184.683-22.848l30.165 30.166 90.518-90.496-30.187-30.187-90.496 90.517z"  horiz-adv-x="1024" />

    
    <glyph glyph-name="xiaoshoue-copy-copy-copy" unicode="&#58881;" d="M511.914667 896C229.248 896 0.042667 666.88 0 384.213333v-0.256c0-282.709333 229.162667-511.872 511.872-511.872H512c282.752 0 511.957333 229.205333 511.957333 512C1024 666.752 794.794667 896 512.042667 896h-0.128z m200.448-664.533333H555.52v-91.562667c0-21.845333-17.408-39.168-43.605333-39.168-21.845333 0-43.52 17.322667-43.52 39.168v91.605333h-157.013334c-21.802667 0-39.210667 21.717333-39.210666 43.52 0 21.76 17.493333 43.605333 39.253333 43.605334h156.885333v65.450666H311.381333c-21.802667 0-39.210667 17.322667-39.210666 43.52 0 21.845333 17.493333 43.648 39.253333 43.648h139.434667l-126.336 122.026667a42.112 42.112 0 0 0 0 61.013333 42.24 42.24 0 0 0 61.013333 0L516.266667 527.7866670000001l122.026666 122.112a42.325333 42.325333 0 0 0 61.013334 0 42.154667 42.154667 0 0 0 0-61.013334l-126.378667-122.069333h139.434667c21.845333 0 39.296-21.845333 39.296-43.605333 0-21.845333-17.493333-43.648-39.253334-43.648l-156.885333 4.48v-65.493334h156.842667c21.845333 0 39.296-17.408 39.296-43.648 0-21.717333-17.493333-43.434667-39.253334-43.434666v-0.042667z"  horiz-adv-x="1024" />

    
    <glyph glyph-name="huajugeju" unicode="&#58891;" d="M512-128C229.239467-128 0 101.239467 0 384S229.239467 896 512 896 1024 666.760533 1024 384 794.760533-128 512-128z m163.794489 577.854578c1.934222-82.011022 1.092267-138.285511-2.480356-168.891734-3.6864-31.584711-4.573867-39.094044-11.423289-58.550044a217.474844 217.474844 0 0 0-28.603733-54.522311 95.527822 95.527822 0 0 1 169.392356 60.575289v198.633244a22.755556 22.755556 0 0 1-22.755556 22.755556h-104.129422zM250.311111 600.177778a22.755556 22.755556 0 0 1-22.755555-22.755556v-262.872178a211.103289 211.103289 0 1 1 422.229333 0V577.422222a22.755556 22.755556 0 0 1-22.755556 22.755556H250.311111z m300.123022-235.975111c0-2.480356-1.137778-4.869689-1.410844-5.3248-18.113422-33.792-57.571556-56.7296-97.939911-56.7296-40.368356 0-79.803733 22.9376-98.167467 57.116444a16.611556 16.611556 0 0 0-1.183289 5.506845c0 2.503111 0.455111 3.322311 1.274311 4.642133 18.249956 33.974044 57.685333 56.888889 98.076445 56.888889 40.368356 0 79.826489-22.9376 98.144711-57.093689 0.750933-1.592889 1.160533-3.2768 1.206044-5.006222z m-62.099911-37.228089c20.548267 0 37.250844 16.702578 37.250845 37.250844s-16.702578 37.250844-37.250845 37.250845-37.250844-16.702578-37.250844-37.250845 16.702578-37.250844 37.250844-37.250844z"  horiz-adv-x="1024" />

    
    <glyph glyph-name="icon--copy" unicode="&#58882;" d="M268.02606186-38.30899283999997a117.44211993 117.44211993 0 0 0-117.28124029 117.2812403L150.74482157 689.0277525399999A117.44211993 117.44211993 0 0 0 268.02606186 806.30899284l488.02831609 0a117.44211993 117.44211993 0 0 0 117.2812403-117.2812403l0-609.97506528a117.44211993 117.44211993 0 0 0-117.2812403-117.28124029z m0 792.97562884a65.79976308 65.79976308 0 0 1-65.71932328-65.71932326l0-609.97506528a65.79976308 65.79976308 0 0 1 65.71932328-65.71932326l488.02831609 0a65.79976308 65.79976308 0 0 1 65.71932328 65.71932326L821.77370123 689.0277525399999a65.79976308 65.79976308 0 0 1-65.71932328 65.71932326zM318.94446042 358.17882159a25.82117841 25.82117841 0 1 0 0 51.56191701l386.11107916 0a25.82117841 25.82117841 0 1 0 0-51.56191701zM318.94446042 236.23207242a25.82117841 25.82117841 0 1 0 0 51.24015779l263.44037172 0a25.82117841 25.82117841 0 1 0 0-51.64235684zM318.94446042 480.52776979a25.82117841 25.82117841 0 1 0 0 51.64235684l386.11107916 0a25.82117841 25.82117841 0 1 0 0-51.64235684z"  horiz-adv-x="1024" />

    
    <glyph glyph-name="jia" unicode="&#58883;" d="M544.727 416.727V613.091A32.684 32.684 0 0 1 512 645.818a32.64 32.64 0 0 1-32.727-32.727v-196.364H282.909A32.684 32.684 0 0 1 250.182 384c0-18.196 14.662-32.727 32.727-32.727h196.364v-196.364c0-18.196 14.662-32.727 32.727-32.727 18.196 0 32.727 14.662 32.727 32.727V351.273h196.364c18.196 0 32.727 14.662 32.727 32.727a32.64 32.64 0 0 1-32.727 32.727H544.727zM512-96C246.91-96 32 118.90999999999997 32 384S246.91 864 512 864s480-214.91 480-480-214.91-480-480-480z"  horiz-adv-x="1024" />

    
    <glyph glyph-name="tianjiaxiangqing" unicode="&#59134;" d="M209.454545 141.963636c0-13.963636 0-27.927273 4.654546-32.581818 9.309091-4.654545 18.618182-4.654545 32.581818-4.654545h4.654546l195.490909 51.2h4.654545L972.8 677.236364c13.963636 13.963636 27.927273 41.890909 27.927273 60.509091 0 27.927273-13.963636 51.2-32.581818 74.472727l-46.545455 46.545454c-18.618182 18.618182-46.545455 32.581818-74.472727 32.581819-18.618182 0-46.545455-4.654545-60.509091-27.927273L265.309091 342.109091 209.454545 141.963636zM833.163636 812.218182c4.654545 4.654545 27.927273 4.654545 32.581819 0l46.545454-46.545455c4.654545-4.654545 4.654545-13.963636 4.654546-18.618182 4.654545-4.654545 4.654545-13.963636 0-18.618181l-51.2-51.2L781.963636 756.363636l51.2 55.854546zM735.418182 709.818182l88.436363-83.781818-372.363636-377.018182-88.436364 83.781818 372.363637 377.018182z m-423.563637-432.872727l74.472728-74.472728-102.4-27.927272 27.927272 102.4zM954.181818 518.981818c-18.618182 0-32.581818-13.963636-32.581818-32.581818v-437.527273c0-65.163636-65.163636-97.745455-102.4-97.745454H148.945455c-46.545455 0-46.545455 46.545455-55.854546 125.672727V733.090909c0 107.054545 27.927273 97.745455 55.854546 97.745455h428.218181c18.618182 0 32.581818 13.963636 32.581819 32.581818s-9.309091 32.581818-32.581819 32.581818H144.290909C83.781818 896 23.272727 854.109091 23.272727 756.363636v-693.527272c0-139.636364 41.890909-190.836364 121.018182-190.836364h684.218182c93.090909 0 167.563636 60.509091 167.563636 162.909091V472.436364c0 32.581818-23.272727 46.545455-41.890909 46.545454z"  horiz-adv-x="1024" />

    
    <glyph glyph-name="xiangqing" unicode="&#58987;" d="M650 523H360c-14.912 0-27 12.088-27 27s12.088 27 27 27h290c14.912 0 27-12.088 27-27s-12.088-27-27-27zM650 371H360c-14.912 0-27 12.088-27 27s12.088 27 27 27h290c14.912 0 27-12.088 27-27s-12.088-27-27-27zM510 221H360c-14.912 0-27 12.088-27 27s12.088 27 27 27h150c14.912 0 27-12.088 27-27s-12.088-27-27-27zM786.5 790.5h-546c-59 0-107-48-107-107v-594c0-59 48-107 107-107H684v0.122a26.888 26.888 0 0 1 16.531 7.787L885.592 175.47a26.89 26.89 0 0 1 7.786 16.524l0.122 0.006V683.5c0 59-48 107-107 107z m-116.245-754H240.5c-29.224 0-53 23.775-53 53v594c0 29.224 23.776 53 53 53h546c29.225 0 53-23.776 53-53v-477.755L670.255 36.5z"  horiz-adv-x="1024" />

    
    <glyph glyph-name="zhuce" unicode="&#58913;" d="M638.780952 271.847619c14.628571-4.87619 29.257143-14.628571 43.885715-19.504762 19.504762-9.752381 24.380952-29.257143 14.628571-48.761905s-29.257143-24.380952-48.761905-14.628571c-48.761905 24.380952-102.4 39.009524-160.914285 39.009524-165.790476 0-307.2-117.028571-341.333334-277.942857-4.87619-19.504762-24.380952-29.257143-39.009524-29.257143-19.504762 4.87619-29.257143 24.380952-29.257142 39.009524 29.257143 141.409524 126.780952 258.438095 258.438095 307.2C243.809524 320.609524 175.542857 423.009524 175.542857 540.038095 175.542857 710.704762 312.07619 852.114286 487.619048 852.114286c170.666667 0 312.07619-136.533333 312.07619-312.076191-4.87619-117.028571-68.266667-214.552381-160.914286-268.190476z m87.771429 268.190476c0 131.657143-107.27619 238.933333-238.933333 238.933334-136.533333 0-243.809524-107.27619-243.809524-238.933334s107.27619-238.933333 243.809524-238.933333c131.657143 0 238.933333 107.27619 238.933333 238.933333z m14.628571-429.104762v107.276191c0 4.87619 0 14.628571 4.876191 19.504762l14.628571 14.628571c4.87619 4.87619 9.752381 4.87619 19.504762 4.876191 4.87619 0 14.628571 0 19.504762-4.876191l14.628572-14.628571c4.87619-4.87619 4.87619-9.752381 4.87619-19.504762v-107.276191h102.4c19.504762 0 34.133333-14.628571 34.133333-34.133333 0-19.504762-14.628571-34.133333-34.133333-34.133333h-102.4v-102.4c0-4.87619 0-14.628571-4.87619-19.504762l-14.628572-14.628572c-4.87619-4.87619-9.752381-4.87619-19.504762-4.87619-4.87619 0-14.628571 0-19.504762 4.87619l-14.628571 14.628572c-4.87619 4.87619-4.87619 9.752381-4.876191 19.504762v102.4H633.904762c-19.504762 0-34.133333 14.628571-34.133333 34.133333 0 19.504762 14.628571 34.133333 34.133333 34.133333h107.27619z"  horiz-adv-x="1024" />

    
    <glyph glyph-name="denglu-1" unicode="&#58884;" d="M512.72817778 879.88906667C240.51105185 879.88906667 15.62548148 654.88213333 15.62548148 382.78637037c0-272.09576297 225.00693333-497.1026963 497.1026963-497.10269629 272.09576297 0 497.1026963 225.00693333 497.1026963 497.10269629 0 272.09576297-225.00693333 497.1026963-497.1026963 497.1026963z m0-209.22974815c73.18186667 0 130.82927408-57.64740741 130.82927407-130.82927407s-57.64740741-130.82927408-130.82927407-130.82927408-130.82927408 57.64740741-130.82927408 130.82927408 57.52604445 130.82927408 130.82927408 130.82927407z m224.88557037-492.00545185c-20.99579259-41.87022222-125.61066667-78.40047408-225.00693333-83.74044445-104.61487408 5.21860741-209.22974815 41.87022222-230.22554074 83.74044445-47.08882963 89.08041482 109.83348148 177.9181037 230.22554074 177.9181037 120.39205925 0 272.21712592-88.83768889 225.00693333-177.9181037z m0 0"  horiz-adv-x="1024" />

    
    <glyph glyph-name="erciyuan" unicode="&#58920;" d="M512 896C229.376 896 0 666.624 0 384s229.376-512 512-512 512 229.376 512 512S794.624 896 512 896z m0-931.84c-231.936 0-419.84 187.904-419.84 419.84s187.904 419.84 419.84 419.84 419.84-187.904 419.84-419.84-187.904-419.84-419.84-419.84z m175.616 459.776l11.776 171.008-165.888-3.072v-70.144l81.408 1.536 3.072-60.416-103.424-2.048 1.024 14.848 86.016 2.048v28.16l-84.48-1.024 4.608 69.632-86.528-2.048 10.752-153.088 241.664 4.608z m-266.752-29.184l8.192-83.968 275.968 5.12 9.216 95.744-205.312-3.584v-32.256l130.048 2.56 1.024-30.72-18.432-0.512 4.096 18.432-52.224-2.048 3.584-17.408h-19.968l4.608 23.04-52.224-2.048 4.608-22.016h-17.92l3.072 51.712-78.336-2.048z m4.608 78.848l-44.032 110.592-84.992-39.424 78.848-98.304 50.176 27.136z m-57.856-136.192l-73.216-91.136 70.656-50.688 53.76 113.152-51.2 28.672z m328.704-76.8v40.448l-257.024-4.096v-40.96l157.696 2.56-27.136-18.432-100.864 10.752-17.408-29.184 30.72-6.144-71.168-12.8 17.92-29.696 144.384 24.576 112.128-22.528 43.52 46.592-80.384 8.704 47.616 30.208zM307.2 391.168c0-24.576 20.48-44.032 46.08-44.032 25.088 0 46.08 19.968 46.08 44.032 0 24.576-20.992 44.032-46.08 44.032-25.6 0-46.08-19.456-46.08-44.032z"  horiz-adv-x="1024" />

    
    <glyph glyph-name="shijian" unicode="&#58885;" d="M510.208 831.424A477.632 477.632 0 0 1 32.64 353.79200000000003a477.632 477.632 0 0 1 477.632-477.632 477.632 477.632 0 0 1 477.632 477.632A477.632 477.632 0 0 1 510.208 831.36z m0-891.648a414.08 414.08 0 0 0 0 828.032 414.08 414.08 0 0 0 0-828.032z m207.04 382.208h-207.04V528.96a16 16 0 0 1-15.872 15.936h-31.872a16 16 0 0 1-15.872-15.936v-254.72a16 16 0 0 1 15.872-15.936h254.72a16 16 0 0 1 16 15.936v31.808a15.872 15.872 0 0 1-16 15.936z"  horiz-adv-x="1024" />

    
    <glyph glyph-name="tubiaozhizuomoEban" unicode="&#59148;" d="M994.802 644.903v-567.292c0-48.281-42.244-90.527-90.523-90.527H493.896c-18.105 0-30.175 12.07-30.175 30.178 0 36.209-30.176 66.383-66.385 66.383-36.211 0-72.422-30.174-72.422-66.383 0-18.107-12.069-30.178-30.174-30.178H119.725c-48.28 0-90.526 42.246-90.526 90.527V644.903c0 48.28 42.247 90.524 90.526 90.524h175.016c18.104 0 30.174-12.07 30.174-30.175 0-36.209 30.177-66.385 66.386-66.385 36.211 0 66.387 30.176 66.387 66.385 0 18.105 12.069 30.175 30.173 30.175h410.381c54.316 0 96.56-42.244 96.56-90.524zM524.07 47.436000000000035h380.208c18.105 0 30.174 12.068 30.174 30.176V644.903c0 18.105-12.068 30.175-30.174 30.175H524.07c-12.068-54.315-66.383-96.56-126.734-96.56-60.353 0-114.665 42.244-126.737 96.56H119.725c-18.105 0-30.176-12.07-30.176-30.175v-567.292c0-18.107 12.071-30.176 30.176-30.176h150.874c12.072 54.314 66.385 96.561 126.737 96.561 60.351 0 108.629-42.246 126.734-96.56zM238.089 474.172h73.501c45.6 0 80.4-13.2 80.4-54.601 0-20.399-11.4-41.4-30.3-48v-1.5c24-5.7 41.701-22.5 41.701-52.501 0-44.7-37.201-65.4-86.101-65.4h-79.201V474.172z m70.201-90.301c28.2 0 40.5 11.4 40.5 29.101 0 19.5-13.2 27.3-39.9 27.3h-26.4v-56.4h25.8z m5.1-97.501c30.3 0 46.8 10.8 46.8 33.9 0 21.601-16.2 30.601-46.8 30.601h-30.9v-64.501h30.9zM441.188 352.071V474.172h44.4v-126.001c0-46.2 15.9-61.801 42.001-61.801 26.4 0 43.2 15.601 43.2 61.801V474.172h42.601v-122.101c0-73.801-31.5-104.102-85.801-104.102-54 0.001-86.401 30.302-86.401 104.102zM698.586 333.471l-66.601 140.701h47.101l22.2-54c6.3-16.5 12.3-32.101 19.2-49.201h1.2c6.899 17.101 13.5 32.701 19.8 49.201l22.2 54h46.2l-66.9-140.701v-81.301h-44.4v81.301z"  horiz-adv-x="1024" />

    


  </font>
</defs>
</svg>
